<!-- 한입지도 파비콘 — 핀+숟가락 (pin-1 확정 2026-07-20) -->
<svg xmlns="http://www.w3.org/2000/svg" viewBox="0 0 24 24">
  <rect width="24" height="24" rx="3" fill="#B4552D"/>
  <g transform="translate(2.4 2.4) scale(0.8)"><path fill="#fff" fill-rule="evenodd" d="M12 1.25C6.75 1.25 3 5.1 3 9.9c0 5.8 6.1 10.35 8.4 12.45.34.31.86.31 1.2 0C14.9 20.25 21 15.7 21 9.9c0-4.8-3.75-8.65-9-8.65Zm0 2.75c-1.25 0-2.2 1.3-2.2 3.25 0 1.85.65 2.85 1.5 3.25v7.05c0 .45.3.8.7.8s.7-.35.7-.8V10.5c.85-.4 1.5-1.4 1.5-3.25C14.2 5.3 13.25 4 12 4Z"/></g>
</svg>
