<!-- 한입지도 로고 — 캠퍼스 팝(DESIGN.md) -->
<svg xmlns="http://www.w3.org/2000/svg" viewBox="0 0 114 24" role="img" aria-labelledby="title">
  <title id="title">한입지도</title>
  <path fill="#B4552D" fill-rule="evenodd" d="M12 1.5A8.5 8.5 0 0 0 3.5 10C3.5 16.5 12 22.5 12 22.5S20.5 16.5 20.5 10A8.5 8.5 0 0 0 12 1.5Zm0 3.3c-1.7 0-3 1.5-3 3.4 0 1.5.8 2.8 2.1 3.3v5.8a.9.9 0 0 0 1.8 0v-5.8c1.3-.5 2.1-1.8 2.1-3.3 0-1.9-1.3-3.4-3-3.4Z"/>
  <path fill="currentColor" fill-rule="evenodd" d="M27 3h9v2.2h-9V3Zm4.5 3.2a4.2 3.2 0 1 1 0 6.4 4.2 3.2 0 0 1 0-6.4Zm0 2a2 1.2 0 1 0 0 2.4 2 1.2 0 0 0 0-2.4ZM38 3h2.4v4.1H44v2.4h-3.6V14H38V3ZM27.5 14.8H30v3.7h13V21H27.5v-6.2Z"/>
  <path fill="currentColor" fill-rule="evenodd" d="M52.8 3a4.8 4.8 0 1 1 0 9.6 4.8 4.8 0 0 1 0-9.6Zm0 2.5a2.3 2.3 0 1 0 0 4.6 2.3 2.3 0 0 0 0-4.6ZM60.5 3H63v10.4h-2.5V3ZM48 14.4h16.5V21H48v-6.6Zm2.5 1.7v1H62v-1H50.5Zm0 2.6v.8H62v-.8H50.5Z"/>
  <path fill="currentColor" d="M70 3h12v2.5h-4l4.5 8-2.4 1.3-4-7-4 7-2.4-1.3 4.5-8H70V3Zm15 0h2.6v18H85V3Z"/>
  <path fill="currentColor" d="M93 3h17.5v2.5H96v6.2h14.5v2.5H93V3Zm8 10.2h2.7v4.9h8.3v2.6H92v-2.6h9v-4.9Z"/>
</svg>